<svg xmlns="http://www.w3.org/2000/svg" xmlns:xlink="http://www.w3.org/1999/xlink" width="100" zoomAndPan="magnify" viewBox="0 0 75 74.999997" height="100" preserveAspectRatio="xMidYMid meet" version="1.0"><defs><clipPath id="990e1a0a06"><path d="M 17 17 L 57 17 L 57 72.203125 L 17 72.203125 Z M 17 17 " clip-rule="nonzero"/></clipPath><clipPath id="b2ca9e0a48"><path d="M 16 15 L 59 15 L 59 72.203125 L 16 72.203125 Z M 16 15 " clip-rule="nonzero"/></clipPath><clipPath id="a94b18de01"><path d="M 10 2.453125 L 65 2.453125 L 65 18 L 10 18 Z M 10 2.453125 " clip-rule="nonzero"/></clipPath><clipPath id="5aee849c1a"><path d="M 9 2.453125 L 66 2.453125 L 66 19 L 9 19 Z M 9 2.453125 " clip-rule="nonzero"/></clipPath></defs><path stroke-linecap="butt" transform="matrix(0.220895, 0, 0, 0.220895, 0.014192, 2.23365)" fill-opacity="1" fill="#0f2f76" fill-rule="nonzero" stroke-linejoin="miter" d="M 0.501633 213.110476 L 123.368513 213.110476 C 112.280785 224.109785 100.36192 235.321299 84.959351 239.901397 C 66.002342 245.524838 44.799494 244.622966 27.22182 235.162145 C 16.982913 229.680174 6.744006 223.154861 0.501633 213.110476 Z M 0.501633 213.110476 " stroke="#3e3e7f" stroke-width="1" stroke-opacity="1" stroke-miterlimit="4"/><path stroke-linecap="butt" transform="matrix(0.220895, 0, 0, 0.220895, 0.014192, 2.23365)" fill-opacity="1" fill="#0f2f76" fill-rule="nonzero" stroke-linejoin="miter" d="M 7.822717 214.171502 L 64.958999 59.1732 " stroke="#3e3e7f" stroke-width="6" stroke-opacity="1" stroke-miterlimit="4"/><path stroke-linecap="butt" transform="matrix(0.220895, 0, 0, 0.220895, 0.014192, 2.23365)" fill-opacity="1" fill="#0f2f76" fill-rule="nonzero" stroke-linejoin="miter" d="M 116.04743 215.42705 L 58.893464 60.428748 " stroke="#3e3e7f" stroke-width="6" stroke-opacity="1" stroke-miterlimit="4"/><path stroke-linecap="butt" transform="matrix(0.220895, 0, 0, 0.220895, 0.014192, 2.23365)" fill-opacity="1" fill="#0f2f76" fill-rule="nonzero" stroke-linejoin="miter" d="M 215.218049 213.110476 L 338.067246 213.110476 C 326.997202 224.109785 315.078336 235.321299 299.658083 239.901397 C 280.701074 245.524838 259.51591 244.622966 241.920552 235.162145 C 231.699329 229.680174 221.442739 223.154861 215.218049 213.110476 Z M 215.218049 213.110476 " stroke="#3e3e7f" stroke-width="1" stroke-opacity="1" stroke-miterlimit="4"/><path stroke-linecap="butt" transform="matrix(0.220895, 0, 0, 0.220895, 0.014192, 2.23365)" fill-opacity="1" fill="#0f2f76" fill-rule="nonzero" stroke-linejoin="miter" d="M 222.539133 214.171502 L 279.675415 59.1732 " stroke="#3e3e7f" stroke-width="6" stroke-opacity="1" stroke-miterlimit="4"/><path stroke-linecap="butt" transform="matrix(0.220895, 0, 0, 0.220895, 0.014192, 2.23365)" fill-opacity="1" fill="#0f2f76" fill-rule="nonzero" stroke-linejoin="miter" d="M 330.746162 215.42705 L 273.60988 60.428748 " stroke="#3e3e7f" stroke-width="6" stroke-opacity="1" stroke-miterlimit="4"/><g clip-path="url(#990e1a0a06)"><path fill="#0f2f76" d="M 17.882812 72.421875 L 56.933594 72.421875 C 56.933594 72.421875 43.566406 70.035156 39.816406 65.085938 C 38.597656 63.480469 39.980469 61.089844 39.910156 59.089844 L 38.472656 17.167969 L 36.503906 17.167969 L 35.066406 59.089844 C 34.996094 61.085938 36.3125 63.484375 35.082031 65.085938 C 31.28125 70.027344 17.882812 72.421875 17.882812 72.421875 Z M 17.882812 72.421875 " fill-opacity="1" fill-rule="nonzero"/></g><g clip-path="url(#b2ca9e0a48)"><path stroke-linecap="butt" transform="matrix(0.220895, 0, 0, 0.220895, 0.014192, 2.23365)" fill="none" stroke-linejoin="miter" d="M 80.892082 317.745382 L 257.676797 317.745382 C 257.676797 317.745382 197.162913 306.940595 180.186488 284.53525 C 174.66915 277.267217 180.929206 266.444746 180.610899 257.390652 L 174.103269 67.608361 L 165.190645 67.608361 L 158.683015 257.390652 C 158.364707 266.427062 164.32414 277.284901 158.753751 284.53525 C 141.547436 306.905227 80.892082 317.745382 80.892082 317.745382 Z M 80.892082 317.745382 " stroke="#3e3e7f" stroke-width="1" stroke-opacity="1" stroke-miterlimit="4"/></g><g clip-path="url(#a94b18de01)"><path fill="#0f2f76" d="M 64.019531 17.59375 L 10.792969 17.59375 L 10.476562 14.515625 C 10.460938 14.335938 10.503906 14.101562 10.65625 14.003906 C 10.8125 13.90625 11.023438 14.074219 11.207031 14.0625 C 17.828125 13.84375 24.011719 9.445312 30.714844 10.574219 C 32.3125 10.839844 33.691406 11.425781 34.855469 12.542969 C 35 12.691406 35.289062 12.976562 35.289062 12.976562 C 35.894531 13.582031 36.132812 12.730469 36.394531 11.953125 C 36.90625 10.261719 37.296875 2.566406 37.40625 2.566406 C 37.515625 2.566406 37.90625 10.261719 38.421875 11.953125 C 38.683594 12.730469 38.917969 13.582031 39.523438 12.976562 C 39.523438 12.976562 39.816406 12.691406 39.957031 12.542969 C 41.050781 11.328125 42.535156 10.777344 44.101562 10.574219 C 50.710938 9.703125 57.089844 13.160156 63.605469 14.0625 C 63.792969 14.074219 64.003906 13.90625 64.160156 14.003906 C 64.3125 14.101562 64.355469 14.335938 64.335938 14.515625 Z M 64.019531 17.59375 " fill-opacity="1" fill-rule="nonzero"/></g><g clip-path="url(#5aee849c1a)"><path stroke-linecap="butt" transform="matrix(0.220895, 0, 0, 0.220895, 0.014192, 2.23365)" fill="none" stroke-linejoin="miter" d="M 289.755168 69.535893 L 48.796027 69.535893 L 47.363641 55.601077 C 47.292906 54.787623 47.487428 53.726597 48.177095 53.284502 C 48.884446 52.842408 49.83937 53.60281 50.670508 53.549759 C 80.644509 52.559467 108.637927 32.647535 138.983288 37.758146 C 146.215953 38.960643 152.458326 41.61321 157.728092 46.67077 C 158.382391 47.342753 159.690991 48.633669 159.690991 48.633669 C 162.431976 51.374654 163.510686 47.519591 164.6955 44.000519 C 167.012074 36.343444 168.780452 1.506404 169.275598 1.506404 C 169.770743 1.506404 171.539121 36.343444 173.87338 44.000519 C 175.058193 47.519591 176.119219 51.374654 178.860205 48.633669 C 178.860205 48.633669 180.186488 47.342753 180.823104 46.67077 C 185.774561 41.171115 192.494396 38.677703 199.585591 37.758146 C 229.506541 33.814664 258.384148 49.464806 287.880688 53.549759 C 288.729509 53.60281 289.684433 52.842408 290.391784 53.284502 C 291.081451 53.726597 291.275973 54.787623 291.187554 55.601077 Z M 289.755168 69.535893 " stroke="#3e3e7f" stroke-width="1" stroke-opacity="1" stroke-miterlimit="4"/></g></svg>