<svg xmlns="http://www.w3.org/2000/svg" xmlns:xlink="http://www.w3.org/1999/xlink" width="500" zoomAndPan="magnify" viewBox="0 0 375 374.999991" height="500" preserveAspectRatio="xMidYMid meet" version="1.0"><defs><g/><clipPath id="153902f287"><path d="M 6.394531 220 L 65 220 L 65 236 L 6.394531 236 Z M 6.394531 220 " clip-rule="nonzero"/></clipPath><clipPath id="4a65a52583"><path d="M 6.394531 218 L 68 218 L 68 238 L 6.394531 238 Z M 6.394531 218 " clip-rule="nonzero"/></clipPath><clipPath id="38c65810da"><path d="M 6.394531 131 L 54 131 L 54 238 L 6.394531 238 Z M 6.394531 131 " clip-rule="nonzero"/></clipPath><clipPath id="87faaa4657"><path d="M 105 218 L 167.644531 218 L 167.644531 238 L 105 238 Z M 105 218 " clip-rule="nonzero"/></clipPath><clipPath id="99f5ab294c"><path d="M 120 132 L 167.644531 132 L 167.644531 239 L 120 239 Z M 120 132 " clip-rule="nonzero"/></clipPath><clipPath id="a06b75da6b"><path d="M 44 151 L 129 151 L 129 270.867188 L 44 270.867188 Z M 44 151 " clip-rule="nonzero"/></clipPath><clipPath id="7224ed4aa3"><path d="M 42 149 L 132 149 L 132 270.867188 L 42 270.867188 Z M 42 149 " clip-rule="nonzero"/></clipPath><clipPath id="843e1a085f"><path d="M 28 120.117188 L 145 120.117188 L 145 153 L 28 153 Z M 28 120.117188 " clip-rule="nonzero"/></clipPath><clipPath id="7248114378"><path d="M 26 120.117188 L 148 120.117188 L 148 156 L 26 156 Z M 26 120.117188 " clip-rule="nonzero"/></clipPath></defs><g clip-path="url(#153902f287)"><path fill="#0f2f76" d="M 6.660156 220.796875 L 64.976562 220.796875 C 59.71875 226.023438 54.0625 231.34375 46.75 233.515625 C 37.75 236.183594 27.691406 235.753906 19.34375 231.269531 C 14.488281 228.660156 9.621094 225.566406 6.664062 220.796875 Z M 6.660156 220.796875 " fill-opacity="1" fill-rule="nonzero"/></g><g clip-path="url(#4a65a52583)"><path stroke-linecap="butt" transform="matrix(0.474659, 0, 0, 0.474659, 6.424025, 119.64334)" fill="none" stroke-linejoin="miter" d="M 0.497475 213.107687 L 123.356993 213.107687 C 112.279967 224.118876 100.363524 235.327575 84.957736 239.903226 C 65.996765 245.524034 44.805576 244.618779 27.218947 235.171213 C 16.989569 229.673848 6.735503 223.156014 0.505705 213.107687 Z M 0.497475 213.107687 " stroke="#3e3e7f" stroke-width="1" stroke-opacity="1" stroke-miterlimit="4"/></g><path fill="#0f2f76" d="M 10.136719 221.304688 L 37.261719 147.734375 " fill-opacity="1" fill-rule="nonzero"/><g clip-path="url(#38c65810da)"><path stroke-linecap="butt" transform="matrix(0.474659, 0, 0, 0.474659, 6.424025, 119.64334)" fill="none" stroke-linejoin="miter" d="M 7.821808 214.177534 L 64.968067 59.181476 " stroke="#3e3e7f" stroke-width="6" stroke-opacity="1" stroke-miterlimit="4"/></g><path stroke-linecap="butt" transform="matrix(0.474659, 0, 0, 0.474659, 6.424025, 119.64334)" fill-opacity="1" fill="#0f2f76" fill-rule="nonzero" stroke-linejoin="miter" d="M 116.040889 215.428431 L 58.894631 60.432373 " stroke="#3e3e7f" stroke-width="6" stroke-opacity="1" stroke-miterlimit="4"/><path fill="#0f2f76" d="M 108.574219 220.796875 L 166.890625 220.796875 C 161.632812 226.023438 155.976562 231.34375 148.664062 233.515625 C 139.664062 236.183594 129.605469 235.753906 121.257812 231.269531 C 116.402344 228.660156 111.535156 225.566406 108.578125 220.796875 Z M 108.574219 220.796875 " fill-opacity="1" fill-rule="nonzero"/><g clip-path="url(#87faaa4657)"><path stroke-linecap="butt" transform="matrix(0.474659, 0, 0, 0.474659, 6.424025, 119.64334)" fill="none" stroke-linejoin="miter" d="M 215.207423 213.107687 L 338.06694 213.107687 C 326.989915 224.118876 315.073472 235.327575 299.667683 239.903226 C 280.706713 245.524034 259.515524 244.618779 241.928895 235.171213 C 231.699517 229.673848 221.445451 223.156014 215.215653 213.107687 Z M 215.207423 213.107687 " stroke="#3e3e7f" stroke-width="1" stroke-opacity="1" stroke-miterlimit="4"/></g><path stroke-linecap="butt" transform="matrix(0.474659, 0, 0, 0.474659, 6.424025, 119.64334)" fill-opacity="1" fill="#0f2f76" fill-rule="nonzero" stroke-linejoin="miter" d="M 222.539986 214.177534 L 279.686244 59.181476 " stroke="#3e3e7f" stroke-width="6" stroke-opacity="1" stroke-miterlimit="4"/><path fill="#0f2f76" d="M 163.417969 221.898438 L 136.292969 148.328125 " fill-opacity="1" fill-rule="nonzero"/><g clip-path="url(#99f5ab294c)"><path stroke-linecap="butt" transform="matrix(0.474659, 0, 0, 0.474659, 6.424025, 119.64334)" fill="none" stroke-linejoin="miter" d="M 330.750837 215.428431 L 273.604579 60.432373 " stroke="#3e3e7f" stroke-width="6" stroke-opacity="1" stroke-miterlimit="4"/></g><g clip-path="url(#a06b75da6b)"><path fill="#0f2f76" d="M 44.820312 270.464844 L 128.734375 270.464844 C 128.734375 270.464844 100.007812 265.335938 91.949219 254.699219 C 89.332031 251.25 92.300781 246.109375 92.152344 241.816406 L 89.066406 151.730469 L 84.828125 151.730469 L 81.746094 241.816406 C 81.597656 246.109375 84.421875 251.261719 81.777344 254.699219 C 73.613281 265.316406 44.824219 270.464844 44.824219 270.464844 Z M 44.820312 270.464844 " fill-opacity="1" fill-rule="nonzero"/></g><g clip-path="url(#7224ed4aa3)"><path stroke-linecap="butt" transform="matrix(0.474659, 0, 0, 0.474659, 6.424025, 119.64334)" fill="none" stroke-linejoin="miter" d="M 80.892319 317.746897 L 257.680326 317.746897 C 257.680326 317.746897 197.159937 306.941448 180.182297 284.532281 C 174.668473 277.265555 180.92296 266.435417 180.610235 257.3911 L 174.108861 67.600344 L 165.179758 67.600344 L 158.686613 257.3911 C 158.373889 266.435417 164.323881 277.290243 158.75245 284.532281 C 141.552611 306.900301 80.900549 317.746897 80.900549 317.746897 Z M 80.892319 317.746897 " stroke="#3e3e7f" stroke-width="1" stroke-opacity="1" stroke-miterlimit="4"/></g><g clip-path="url(#843e1a085f)"><path fill="#0f2f76" d="M 143.960938 152.648438 L 29.585938 152.648438 L 28.910156 146.039062 C 28.871094 145.652344 28.960938 145.144531 29.289062 144.9375 C 29.625 144.722656 30.082031 145.085938 30.476562 145.0625 C 44.703125 144.589844 57.992188 135.136719 72.390625 137.5625 C 75.824219 138.140625 78.785156 139.394531 81.292969 141.800781 C 81.601562 142.113281 82.222656 142.730469 82.222656 142.730469 C 83.523438 144.03125 84.035156 142.203125 84.597656 140.527344 C 85.699219 136.898438 86.535156 120.355469 86.773438 120.355469 C 87.011719 120.355469 87.847656 136.898438 88.949219 140.527344 C 89.515625 142.203125 90.023438 144.03125 91.324219 142.730469 C 91.324219 142.730469 91.945312 142.113281 92.257812 141.800781 C 94.601562 139.1875 97.796875 138.003906 101.15625 137.5625 C 115.367188 135.695312 129.070312 143.125 143.070312 145.0625 C 143.46875 145.085938 143.921875 144.722656 144.257812 144.9375 C 144.585938 145.144531 144.679688 145.652344 144.640625 146.039062 Z M 143.960938 152.648438 " fill-opacity="1" fill-rule="nonzero"/></g><g clip-path="url(#7248114378)"><path stroke-linecap="butt" transform="matrix(0.474659, 0, 0, 0.474659, 6.424025, 119.64334)" fill="none" stroke-linejoin="miter" d="M 289.75926 69.534297 L 48.796926 69.534297 L 47.373208 55.609835 C 47.290912 54.795105 47.480192 53.725259 48.171478 53.289091 C 48.879222 52.836464 49.842084 53.601815 50.673273 53.552438 C 80.645432 52.556658 108.64249 32.641055 138.97675 37.751629 C 146.210558 38.969608 152.448586 41.611306 157.731981 46.680732 C 158.382119 47.339099 159.690623 48.639374 159.690623 48.639374 C 162.431076 51.379827 163.509152 47.528379 164.694213 43.997886 C 167.014956 36.352599 168.776088 1.500294 169.278093 1.500294 C 169.780098 1.500294 171.54123 36.352599 173.861973 43.997886 C 175.055264 47.528379 176.12511 51.379827 178.865563 48.639374 C 178.865563 48.639374 180.174067 47.339099 180.832434 46.680732 C 185.770187 41.175138 192.50199 38.681572 199.579436 37.751629 C 229.518676 33.817886 258.388071 49.470562 287.882913 53.552438 C 288.722331 53.601815 289.676964 52.836464 290.384708 53.289091 C 291.075994 53.725259 291.273504 54.795105 291.191208 55.609835 Z M 289.75926 69.534297 " stroke="#3e3e7f" stroke-width="1" stroke-opacity="1" stroke-miterlimit="4"/></g><g fill="#0f2f76" fill-opacity="1"><g transform="translate(167.556865, 270.177058)"><g><path d="M 54.03125 1.890625 C 44.050781 1.890625 35.078125 0.4375 27.109375 -2.46875 C 19.148438 -5.375 12.957031 -8.40625 8.53125 -11.5625 L 7.578125 -37.921875 L 9.671875 -38.296875 C 12.203125 -31.722656 15.519531 -25.625 19.625 -20 C 23.726562 -14.375 28.941406 -9.882812 35.265625 -6.53125 C 41.585938 -3.1875 49.109375 -1.515625 57.828125 -1.515625 C 62.890625 -1.515625 67.566406 -2.554688 71.859375 -4.640625 C 76.160156 -6.734375 79.601562 -9.675781 82.1875 -13.46875 C 84.78125 -17.257812 86.078125 -21.679688 86.078125 -26.734375 C 86.078125 -31.535156 84.8125 -35.707031 82.28125 -39.25 C 79.757812 -42.789062 76.472656 -45.882812 72.421875 -48.53125 C 68.378906 -51.1875 64.113281 -53.492188 59.625 -55.453125 C 55.144531 -57.421875 50.878906 -59.222656 46.828125 -60.859375 C 39.367188 -63.898438 32.890625 -66.96875 27.390625 -70.0625 C 21.898438 -73.15625 17.664062 -76.882812 14.6875 -81.25 C 11.71875 -85.613281 10.234375 -91.144531 10.234375 -97.84375 C 10.234375 -105.300781 12.160156 -111.710938 16.015625 -117.078125 C 19.878906 -122.453125 25.285156 -126.625 32.234375 -129.59375 C 39.179688 -132.5625 47.269531 -134.046875 56.5 -134.046875 C 65.09375 -134.046875 72.488281 -133.097656 78.6875 -131.203125 C 84.882812 -129.304688 89.816406 -127.347656 93.484375 -125.328125 L 94.234375 -103.34375 L 92.34375 -102.765625 C 88.800781 -110.984375 83.648438 -117.742188 76.890625 -123.046875 C 70.128906 -128.359375 61.3125 -131.015625 50.4375 -131.015625 C 45.382812 -131.015625 40.675781 -130.035156 36.3125 -128.078125 C 31.945312 -126.117188 28.46875 -123.304688 25.875 -119.640625 C 23.289062 -115.972656 22 -111.421875 22 -105.984375 C 22 -101.566406 23.070312 -97.710938 25.21875 -94.421875 C 27.363281 -91.140625 30.207031 -88.296875 33.75 -85.890625 C 37.289062 -83.492188 41.144531 -81.378906 45.3125 -79.546875 C 49.488281 -77.710938 53.597656 -75.972656 57.640625 -74.328125 C 64.722656 -71.546875 71.359375 -68.570312 77.546875 -65.40625 C 83.742188 -62.25 88.769531 -58.394531 92.625 -53.84375 C 96.476562 -49.289062 98.40625 -43.414062 98.40625 -36.21875 C 98.40625 -28.375 96.253906 -21.578125 91.953125 -15.828125 C 87.660156 -10.078125 82.128906 -5.6875 75.359375 -2.65625 C 68.597656 0.375 61.488281 1.890625 54.03125 1.890625 Z M 54.03125 1.890625 "/></g></g></g><g fill="#0f2f76" fill-opacity="1"><g transform="translate(272.028953, 270.177058)"><g><path d="M 9.671875 0 L 9.671875 -2.46875 C 12.578125 -3.351562 14.566406 -5.25 15.640625 -8.15625 C 16.710938 -11.0625 17.25 -16.367188 17.25 -24.078125 L 17.25 -108.640625 C 17.25 -116.484375 16.710938 -121.828125 15.640625 -124.671875 C 14.566406 -127.515625 12.578125 -129.378906 9.671875 -130.265625 L 9.671875 -132.71875 L 40.390625 -132.71875 L 40.390625 -130.265625 C 37.484375 -129.378906 35.488281 -127.515625 34.40625 -124.671875 C 33.332031 -121.828125 32.796875 -116.484375 32.796875 -108.640625 L 32.796875 -11.5625 C 32.796875 -5.875 35.640625 -3.03125 41.328125 -3.03125 L 63.890625 -3.03125 C 72.992188 -3.03125 79.976562 -4.390625 84.84375 -7.109375 C 89.71875 -9.828125 93.796875 -14.726562 97.078125 -21.8125 L 99.171875 -21.421875 L 97.84375 0 Z M 9.671875 0 "/></g></g></g><g fill="#0f2f76" fill-opacity="1"><g transform="translate(193.902257, 255.056917)"><g><path d="M 22.03125 8.65625 C 19.71875 7.8125 17.554688 6.578125 15.546875 4.953125 C 13.546875 3.328125 11.890625 1.363281 10.578125 -0.9375 C 9.273438 -3.238281 8.507812 -5.828125 8.28125 -8.703125 C 8.0625 -11.585938 8.570312 -14.722656 9.8125 -18.109375 C 11.164062 -21.847656 13.191406 -24.882812 15.890625 -27.21875 C 18.597656 -29.550781 21.71875 -31.03125 25.25 -31.65625 C 28.78125 -32.289062 32.46875 -31.90625 36.3125 -30.5 C 38.601562 -29.664062 40.742188 -28.429688 42.734375 -26.796875 C 44.734375 -25.160156 46.375 -23.191406 47.65625 -20.890625 C 48.945312 -18.597656 49.703125 -16.003906 49.921875 -13.109375 C 50.148438 -10.222656 49.65625 -7.113281 48.4375 -3.78125 C 47.207031 -0.394531 45.585938 2.304688 43.578125 4.328125 C 41.566406 6.347656 39.320312 7.8125 36.84375 8.71875 C 34.375 9.632812 31.859375 10.0625 29.296875 10 C 26.742188 9.9375 24.320312 9.488281 22.03125 8.65625 Z M 15.3125 -19.671875 C 14.4375 -16.898438 13.976562 -14.070312 13.9375 -11.1875 C 13.894531 -8.3125 14.273438 -5.570312 15.078125 -2.96875 C 15.878906 -0.375 17.09375 1.894531 18.71875 3.84375 C 20.351562 5.800781 22.390625 7.222656 24.828125 8.109375 C 27.734375 9.171875 30.378906 9.414062 32.765625 8.84375 C 35.160156 8.28125 37.222656 7.066406 38.953125 5.203125 C 40.691406 3.347656 41.992188 1.035156 42.859375 -1.734375 C 43.785156 -4.597656 44.285156 -7.507812 44.359375 -10.46875 C 44.429688 -13.4375 44.082031 -16.234375 43.3125 -18.859375 C 42.539062 -21.484375 41.34375 -23.78125 39.71875 -25.75 C 38.09375 -27.726562 36.0625 -29.160156 33.625 -30.046875 C 30.863281 -31.054688 28.273438 -31.28125 25.859375 -30.71875 C 23.453125 -30.15625 21.335938 -28.929688 19.515625 -27.046875 C 17.703125 -25.160156 16.300781 -22.703125 15.3125 -19.671875 Z M 15.3125 -19.671875 "/></g></g></g></svg>