<svg xmlns="http://www.w3.org/2000/svg" xmlns:xlink="http://www.w3.org/1999/xlink" width="500" zoomAndPan="magnify" viewBox="0 0 375 225" height="300" preserveAspectRatio="xMidYMid meet" version="1.0"><defs><g/><clipPath id="9f4f9dd13e"><path d="M 5.039062 115 L 64 115 L 64 130 L 5.039062 130 Z M 5.039062 115 " clip-rule="nonzero"/></clipPath><clipPath id="6c743eaef9"><path d="M 5.039062 112 L 66 112 L 66 133 L 5.039062 133 Z M 5.039062 112 " clip-rule="nonzero"/></clipPath><clipPath id="8b0cdd8225"><path d="M 5.039062 27 L 52 27 L 52 133 L 5.039062 133 Z M 5.039062 27 " clip-rule="nonzero"/></clipPath><clipPath id="f660886579"><path d="M 103 112 L 164.679688 112 L 164.679688 133 L 103 133 Z M 103 112 " clip-rule="nonzero"/></clipPath><clipPath id="70e95a3aa3"><path d="M 117 27 L 164.679688 27 L 164.679688 133 L 117 133 Z M 117 27 " clip-rule="nonzero"/></clipPath><clipPath id="f18023b112"><path d="M 40 44 L 129 44 L 129 165.195312 L 40 165.195312 Z M 40 44 " clip-rule="nonzero"/></clipPath><clipPath id="b2a922165d"><path d="M 24 15.953125 L 145 15.953125 L 145 51 L 24 51 Z M 24 15.953125 " clip-rule="nonzero"/></clipPath></defs><g clip-path="url(#9f4f9dd13e)"><path fill="#0f2f76" d="M 5.304688 115.628906 L 63.035156 115.628906 C 57.832031 120.800781 52.230469 126.066406 44.992188 128.21875 C 36.082031 130.859375 26.125 130.433594 17.859375 125.992188 C 13.050781 123.410156 8.234375 120.347656 5.304688 115.628906 Z M 5.304688 115.628906 " fill-opacity="1" fill-rule="nonzero"/></g><g clip-path="url(#6c743eaef9)"><path stroke-linecap="butt" transform="matrix(0.469914, 0, 0, 0.469914, 5.068475, 15.484336)" fill="none" stroke-linejoin="miter" d="M 0.502672 213.112601 L 123.355966 213.112601 C 112.283459 224.118607 100.363056 235.324118 84.959636 239.904412 C 65.998382 245.523792 44.809327 244.617709 27.219668 235.166176 C 16.986743 229.671486 6.737192 223.154335 0.502672 213.112601 Z M 0.502672 213.112601 " stroke="#3e3e7f" stroke-width="1" stroke-opacity="1" stroke-miterlimit="4"/></g><path fill="#0f2f76" d="M 8.742188 116.128906 L 35.597656 43.292969 " fill-opacity="1" fill-rule="nonzero"/><g clip-path="url(#8b0cdd8225)"><path stroke-linecap="butt" transform="matrix(0.469914, 0, 0, 0.469914, 5.068475, 15.484336)" fill="none" stroke-linejoin="miter" d="M 7.817842 214.176626 L 64.967608 59.178146 " stroke="#3e3e7f" stroke-width="6" stroke-opacity="1" stroke-miterlimit="4"/></g><path stroke-linecap="butt" transform="matrix(0.469914, 0, 0, 0.469914, 5.068475, 15.484336)" fill-opacity="1" fill="#0f2f76" fill-rule="nonzero" stroke-linejoin="miter" d="M 116.040796 215.431842 L 58.899342 60.433363 " stroke="#3e3e7f" stroke-width="6" stroke-opacity="1" stroke-miterlimit="4"/><path fill="#0f2f76" d="M 106.199219 115.628906 L 163.933594 115.628906 C 158.726562 120.800781 153.128906 126.066406 145.886719 128.21875 C 136.976562 130.859375 127.019531 130.433594 118.753906 125.992188 C 113.949219 123.410156 109.128906 120.347656 106.199219 115.628906 Z M 106.199219 115.628906 " fill-opacity="1" fill-rule="nonzero"/><g clip-path="url(#f660886579)"><path stroke-linecap="butt" transform="matrix(0.469914, 0, 0, 0.469914, 5.068475, 15.484336)" fill="none" stroke-linejoin="miter" d="M 215.211227 213.112601 L 338.072834 213.112601 C 326.992014 224.118607 315.079924 235.324118 299.668191 239.904412 C 280.706938 245.523792 259.517882 244.617709 241.928223 235.166176 C 231.703611 229.671486 221.445747 223.154335 215.211227 213.112601 Z M 215.211227 213.112601 " stroke="#3e3e7f" stroke-width="1" stroke-opacity="1" stroke-miterlimit="4"/></g><path stroke-linecap="butt" transform="matrix(0.469914, 0, 0, 0.469914, 5.068475, 15.484336)" fill-opacity="1" fill="#0f2f76" fill-rule="nonzero" stroke-linejoin="miter" d="M 222.543023 214.176626 L 279.684476 59.178146 " stroke="#3e3e7f" stroke-width="6" stroke-opacity="1" stroke-miterlimit="4"/><path fill="#0f2f76" d="M 160.492188 116.71875 L 133.640625 43.882812 " fill-opacity="1" fill-rule="nonzero"/><g clip-path="url(#70e95a3aa3)"><path stroke-linecap="butt" transform="matrix(0.469914, 0, 0, 0.469914, 5.068475, 15.484336)" fill="none" stroke-linejoin="miter" d="M 330.749351 215.431842 L 273.607898 60.433363 " stroke="#3e3e7f" stroke-width="6" stroke-opacity="1" stroke-miterlimit="4"/></g><path fill="#0f2f76" d="M 43.082031 164.800781 L 126.15625 164.800781 C 126.15625 164.800781 97.714844 159.71875 89.738281 149.191406 C 87.148438 145.773438 90.085938 140.6875 89.941406 136.4375 L 86.886719 47.25 L 82.691406 47.25 L 79.636719 136.4375 C 79.492188 140.6875 82.289062 145.785156 79.667969 149.191406 C 71.585938 159.703125 43.082031 164.800781 43.082031 164.800781 Z M 43.082031 164.800781 " fill-opacity="1" fill-rule="nonzero"/><g clip-path="url(#f18023b112)"><path stroke-linecap="butt" transform="matrix(0.469914, 0, 0, 0.469914, 5.068475, 15.484336)" fill="none" stroke-linejoin="miter" d="M 80.894729 317.752784 L 257.680777 317.752784 C 257.680777 317.752784 197.156057 306.93797 180.181537 284.535262 C 174.670222 277.261655 180.921367 266.438529 180.613798 257.394318 L 174.113271 67.598905 L 165.185439 67.598905 L 158.684913 257.394318 C 158.377343 266.438529 164.329231 277.286593 158.751414 284.535262 C 141.552452 306.90472 80.894729 317.752784 80.894729 317.752784 Z M 80.894729 317.752784 " stroke="#3e3e7f" stroke-width="1" stroke-opacity="1" stroke-miterlimit="4"/></g><path fill="#0f2f76" d="M 141.230469 48.160156 L 28 48.160156 L 27.328125 41.613281 C 27.289062 41.230469 27.382812 40.730469 27.707031 40.523438 C 28.039062 40.3125 28.488281 40.671875 28.882812 40.648438 C 42.964844 40.179688 56.121094 30.824219 70.375 33.222656 C 73.777344 33.796875 76.707031 35.039062 79.1875 37.417969 C 79.492188 37.726562 80.109375 38.34375 80.109375 38.34375 C 81.398438 39.628906 81.902344 37.816406 82.460938 36.160156 C 83.550781 32.566406 84.378906 16.1875 84.617188 16.1875 C 84.851562 16.1875 85.679688 32.566406 86.769531 36.160156 C 87.328125 37.816406 87.832031 39.628906 89.121094 38.34375 C 89.121094 38.34375 89.738281 37.726562 90.042969 37.417969 C 92.363281 34.832031 95.527344 33.660156 98.855469 33.222656 C 112.921875 31.375 126.488281 38.730469 140.347656 40.648438 C 140.742188 40.671875 141.191406 40.3125 141.523438 40.523438 C 141.847656 40.730469 141.941406 41.230469 141.902344 41.613281 Z M 141.230469 48.160156 " fill-opacity="1" fill-rule="nonzero"/><g clip-path="url(#b2a922165d)"><path stroke-linecap="butt" transform="matrix(0.469914, 0, 0, 0.469914, 5.068475, 15.484336)" fill="none" stroke-linejoin="miter" d="M 289.759461 69.535762 L 48.79942 69.535762 L 47.369637 55.603688 C 47.28651 54.789044 47.486014 53.72502 48.175968 53.284447 C 48.882547 52.835561 49.838506 53.600329 50.678089 53.550453 C 80.645348 52.55293 108.642499 32.644029 138.975517 37.748023 C 146.215873 38.969989 152.450393 41.613426 157.728953 46.675856 C 158.377343 47.332559 159.690748 48.645964 159.690748 48.645964 C 162.433937 51.38084 163.506275 47.52375 164.69499 43.999168 C 167.014231 36.351491 168.776522 1.496368 169.283597 1.496368 C 169.782358 1.496368 171.544649 36.351491 173.863891 43.999168 C 175.052606 47.52375 176.124943 51.38084 178.868132 48.645964 C 178.868132 48.645964 180.181537 47.332559 180.829928 46.675856 C 185.767667 41.172853 192.500949 38.679045 199.583364 37.748023 C 229.517372 33.816119 258.387356 49.468921 287.880792 53.550453 C 288.720374 53.600329 289.676334 52.835561 290.382913 53.284447 C 291.072866 53.72502 291.272371 54.789044 291.189244 55.603688 Z M 289.759461 69.535762 " stroke="#3e3e7f" stroke-width="1" stroke-opacity="1" stroke-miterlimit="4"/></g><g fill="#0f2f76" fill-opacity="1"><g transform="translate(164.590424, 164.513119)"><g><path d="M 53.5 1.875 C 43.613281 1.875 34.726562 0.4375 26.84375 -2.4375 C 18.957031 -5.3125 12.828125 -8.316406 8.453125 -11.453125 L 7.515625 -37.546875 L 9.578125 -37.921875 C 12.078125 -31.410156 15.359375 -25.367188 19.421875 -19.796875 C 23.492188 -14.234375 28.65625 -9.789062 34.90625 -6.46875 C 41.164062 -3.15625 48.613281 -1.5 57.25 -1.5 C 62.25 -1.5 66.875 -2.53125 71.125 -4.59375 C 75.382812 -6.664062 78.796875 -9.578125 81.359375 -13.328125 C 83.929688 -17.078125 85.21875 -21.457031 85.21875 -26.46875 C 85.21875 -31.21875 83.960938 -35.34375 81.453125 -38.84375 C 78.953125 -42.351562 75.703125 -45.421875 71.703125 -48.046875 C 67.703125 -50.679688 63.476562 -52.96875 59.03125 -54.90625 C 54.59375 -56.84375 50.367188 -58.625 46.359375 -60.25 C 38.972656 -63.25 32.554688 -66.28125 27.109375 -69.34375 C 21.671875 -72.414062 17.484375 -76.109375 14.546875 -80.421875 C 11.609375 -84.742188 10.140625 -90.222656 10.140625 -96.859375 C 10.140625 -104.234375 12.046875 -110.582031 15.859375 -115.90625 C 19.671875 -121.226562 25.019531 -125.359375 31.90625 -128.296875 C 38.789062 -131.234375 46.800781 -132.703125 55.9375 -132.703125 C 64.445312 -132.703125 71.765625 -131.765625 77.890625 -129.890625 C 84.023438 -128.015625 88.90625 -126.078125 92.53125 -124.078125 L 93.28125 -102.296875 L 91.40625 -101.734375 C 87.90625 -109.867188 82.804688 -116.5625 76.109375 -121.8125 C 69.421875 -127.070312 60.691406 -129.703125 49.921875 -129.703125 C 44.921875 -129.703125 40.257812 -128.734375 35.9375 -126.796875 C 31.625 -124.859375 28.1875 -122.070312 25.625 -118.4375 C 23.0625 -114.8125 21.78125 -110.304688 21.78125 -104.921875 C 21.78125 -100.546875 22.84375 -96.726562 24.96875 -93.46875 C 27.09375 -90.21875 29.90625 -87.40625 33.40625 -85.03125 C 36.914062 -82.65625 40.734375 -80.554688 44.859375 -78.734375 C 48.992188 -76.921875 53.0625 -75.203125 57.0625 -73.578125 C 64.070312 -70.828125 70.640625 -67.882812 76.765625 -64.75 C 82.898438 -61.625 87.875 -57.804688 91.6875 -53.296875 C 95.507812 -48.796875 97.421875 -42.976562 97.421875 -35.84375 C 97.421875 -28.09375 95.289062 -21.367188 91.03125 -15.671875 C 86.78125 -9.972656 81.304688 -5.625 74.609375 -2.625 C 67.910156 0.375 60.875 1.875 53.5 1.875 Z M 53.5 1.875 "/></g></g></g><g fill="#0f2f76" fill-opacity="1"><g transform="translate(268.018073, 164.513119)"><g><path d="M 9.578125 0 L 9.578125 -2.4375 C 12.453125 -3.3125 14.421875 -5.1875 15.484375 -8.0625 C 16.546875 -10.945312 17.078125 -16.207031 17.078125 -23.84375 L 17.078125 -107.546875 C 17.078125 -115.304688 16.546875 -120.59375 15.484375 -123.40625 C 14.421875 -126.226562 12.453125 -128.078125 9.578125 -128.953125 L 9.578125 -131.390625 L 39.984375 -131.390625 L 39.984375 -128.953125 C 37.097656 -128.078125 35.125 -126.226562 34.0625 -123.40625 C 33 -120.59375 32.46875 -115.304688 32.46875 -107.546875 L 32.46875 -11.453125 C 32.46875 -5.816406 35.285156 -3 40.921875 -3 L 63.25 -3 C 72.257812 -3 79.171875 -4.34375 83.984375 -7.03125 C 88.804688 -9.726562 92.847656 -14.578125 96.109375 -21.578125 L 98.171875 -21.203125 L 96.859375 0 Z M 9.578125 0 "/></g></g></g><g fill="#0f2f76" fill-opacity="1"><g transform="translate(190.672439, 149.544136)"><g><path d="M 21.8125 8.578125 C 19.519531 7.734375 17.378906 6.507812 15.390625 4.90625 C 13.410156 3.3125 11.773438 1.367188 10.484375 -0.921875 C 9.203125 -3.210938 8.445312 -5.785156 8.21875 -8.640625 C 7.988281 -11.492188 8.484375 -14.59375 9.703125 -17.9375 C 11.054688 -21.632812 13.066406 -24.632812 15.734375 -26.9375 C 18.410156 -29.238281 21.492188 -30.703125 24.984375 -31.328125 C 28.472656 -31.960938 32.125 -31.582031 35.9375 -30.1875 C 38.207031 -29.363281 40.332031 -28.140625 42.3125 -26.515625 C 44.289062 -24.898438 45.914062 -22.953125 47.1875 -20.671875 C 48.457031 -18.398438 49.207031 -15.835938 49.4375 -12.984375 C 49.664062 -10.128906 49.175781 -7.050781 47.96875 -3.75 C 46.75 -0.40625 45.140625 2.269531 43.140625 4.28125 C 41.140625 6.289062 38.914062 7.742188 36.46875 8.640625 C 34.019531 9.535156 31.53125 9.953125 29 9.890625 C 26.476562 9.835938 24.082031 9.398438 21.8125 8.578125 Z M 15.171875 -19.484375 C 14.285156 -16.742188 13.820312 -13.941406 13.78125 -11.078125 C 13.75 -8.222656 14.128906 -5.507812 14.921875 -2.9375 C 15.710938 -0.363281 16.914062 1.882812 18.53125 3.8125 C 20.15625 5.75 22.175781 7.160156 24.59375 8.046875 C 27.46875 9.085938 30.085938 9.328125 32.453125 8.765625 C 34.828125 8.203125 36.863281 7 38.5625 5.15625 C 40.269531 3.320312 41.566406 1.03125 42.453125 -1.71875 C 43.367188 -4.5625 43.859375 -7.445312 43.921875 -10.375 C 43.992188 -13.300781 43.644531 -16.066406 42.875 -18.671875 C 42.113281 -21.273438 40.925781 -23.550781 39.3125 -25.5 C 37.707031 -27.457031 35.695312 -28.878906 33.28125 -29.765625 C 30.550781 -30.765625 27.992188 -30.976562 25.609375 -30.40625 C 23.222656 -29.84375 21.125 -28.628906 19.3125 -26.765625 C 17.507812 -24.898438 16.128906 -22.472656 15.171875 -19.484375 Z M 15.171875 -19.484375 "/></g></g></g></svg>